<svg width="20" height="20" viewBox="0 0 20 20" fill="none" xmlns="http://www.w3.org/2000/svg">
<path d="M0.999982 12H2.99998V19C2.99998 19.2652 3.10534 19.5196 3.29288 19.7071C3.48041 19.8947 3.73477 20 3.99998 20H16C16.2652 20 16.5196 19.8947 16.7071 19.7071C16.8946 19.5196 17 19.2652 17 19V12H19C19.1932 12.0002 19.3824 11.9442 19.5445 11.839C19.7065 11.7337 19.8346 11.5837 19.913 11.407C19.9919 11.2305 20.0179 11.0348 19.9877 10.8438C19.9576 10.6528 19.8725 10.4746 19.743 10.331L10.743 0.331026C10.364 -0.0909736 9.63598 -0.0909736 9.25698 0.331026L0.256982 10.331C0.127673 10.4747 0.0427701 10.6527 0.012546 10.8437C-0.0176781 11.0346 0.00807238 11.2301 0.0866816 11.4067C0.165291 11.5833 0.29339 11.7333 0.455477 11.8386C0.617565 11.9439 0.806696 12 0.999982 12ZM6.65298 9.64103C7.06921 9.23009 7.63058 8.99967 8.21548 8.99967C8.80039 8.99967 9.36175 9.23009 9.77798 9.64103L10.002 9.86103L10.225 9.64103C10.6414 9.23003 11.2029 8.99959 11.788 8.99959C12.3731 8.99959 12.9346 9.23003 13.351 9.64103C13.5576 9.83976 13.7219 10.0781 13.8342 10.3419C13.9464 10.6057 14.0043 10.8894 14.0043 11.176C14.0043 11.4627 13.9464 11.7464 13.8342 12.0101C13.7219 12.2739 13.5576 12.5123 13.351 12.711L10.002 16L6.65298 12.711C6.4464 12.5123 6.28206 12.2739 6.16981 12.0101C6.05755 11.7464 5.99969 11.4627 5.99969 11.176C5.99969 10.8894 6.05755 10.6057 6.16981 10.3419C6.28206 10.0781 6.4464 9.83976 6.65298 9.64103Z" fill="#DF4300"/>
</svg>
