<svg width="152" height="36" viewBox="0 0 152 36" fill="none" xmlns="http://www.w3.org/2000/svg">
<path d="M49.7713 25H46.4759L51.4972 10.4545H55.4602L60.4744 25H57.179L53.5355 13.7784H53.4219L49.7713 25ZM49.5653 19.2827H57.3494V21.6832H49.5653V19.2827ZM65.1939 10.4545V25H62.1683V10.4545H65.1939ZM74.6133 20.3551V14.0909H77.6388V25H74.734V23.0185H74.6204C74.3742 23.6577 73.9646 24.1714 73.3917 24.5597C72.8235 24.9479 72.1299 25.142 71.3107 25.142C70.5816 25.142 69.94 24.9763 69.386 24.6449C68.832 24.3134 68.3988 23.8423 68.0863 23.2315C67.7785 22.6207 67.6223 21.8892 67.6175 21.0369V14.0909H70.6431V20.4972C70.6478 21.1411 70.8207 21.6501 71.1616 22.0241C71.5025 22.3982 71.9594 22.5852 72.5323 22.5852C72.8969 22.5852 73.2378 22.5024 73.555 22.3366C73.8723 22.1662 74.128 21.9152 74.3221 21.5838C74.521 21.2524 74.618 20.8428 74.6133 20.3551ZM84.9737 29.3182C83.9936 29.3182 83.1532 29.1832 82.4524 28.9134C81.7564 28.6482 81.2024 28.286 80.7905 27.8267C80.3786 27.3674 80.111 26.8513 79.9879 26.2784L82.7862 25.902C82.8714 26.1198 83.0064 26.3234 83.1911 26.5128C83.3757 26.7022 83.6196 26.8537 83.9226 26.9673C84.2304 27.0857 84.6044 27.1449 85.0447 27.1449C85.7029 27.1449 86.245 26.9839 86.6712 26.6619C87.102 26.3447 87.3175 25.812 87.3175 25.0639V23.0682H87.1896C87.0571 23.3712 86.8582 23.6577 86.593 23.9276C86.3279 24.1974 85.987 24.4176 85.5703 24.5881C85.1536 24.7585 84.6565 24.8438 84.0788 24.8438C83.2597 24.8438 82.514 24.6544 81.8416 24.2756C81.174 23.892 80.6413 23.3073 80.2436 22.5213C79.8506 21.7306 79.6541 20.7315 79.6541 19.5241C79.6541 18.2884 79.8554 17.2562 80.2578 16.4276C80.6603 15.599 81.1953 14.9787 81.8629 14.5668C82.5353 14.1548 83.2715 13.9489 84.0717 13.9489C84.6825 13.9489 85.1939 14.053 85.6058 14.2614C86.0178 14.465 86.3492 14.7206 86.6001 15.0284C86.8558 15.3314 87.0523 15.6297 87.1896 15.9233H87.3033V14.0909H90.3075V25.1065C90.3075 26.0346 90.0803 26.8111 89.6257 27.4361C89.1712 28.0611 88.5414 28.5298 87.7365 28.8423C86.9363 29.1596 86.0154 29.3182 84.9737 29.3182ZM85.0376 22.571C85.5253 22.571 85.9373 22.4503 86.2734 22.2088C86.6143 21.9626 86.8748 21.6122 87.0547 21.1577C87.2393 20.6984 87.3317 20.1491 87.3317 19.5099C87.3317 18.8707 87.2417 18.3168 87.0618 17.848C86.8819 17.3745 86.6214 17.0076 86.2805 16.7472C85.9396 16.4867 85.5253 16.3565 85.0376 16.3565C84.5405 16.3565 84.1214 16.4915 83.7805 16.7614C83.4396 17.0265 83.1816 17.3958 83.0064 17.8693C82.8312 18.3428 82.7436 18.8897 82.7436 19.5099C82.7436 20.1397 82.8312 20.6842 83.0064 21.1435C83.1863 21.598 83.4444 21.9508 83.7805 22.2017C84.1214 22.4479 84.5405 22.571 85.0376 22.571ZM95.826 25.206C95.13 25.206 94.5097 25.0852 93.9652 24.8438C93.4207 24.5975 92.9898 24.2353 92.6726 23.7571C92.3601 23.2741 92.2038 22.6728 92.2038 21.9531C92.2038 21.3471 92.3151 20.8381 92.5376 20.4261C92.7602 20.0142 93.0632 19.6828 93.4467 19.4318C93.8303 19.1809 94.2659 18.9915 94.7536 18.8636C95.246 18.7358 95.7621 18.6458 96.3018 18.5938C96.9363 18.5275 97.4477 18.4659 97.8359 18.4091C98.2242 18.3475 98.5059 18.2576 98.6811 18.1392C98.8563 18.0208 98.9439 17.8456 98.9439 17.6136V17.571C98.9439 17.1212 98.8018 16.7732 98.5178 16.527C98.2384 16.2808 97.8407 16.1577 97.3246 16.1577C96.7801 16.1577 96.3468 16.2784 96.0249 16.5199C95.7029 16.7566 95.4898 17.0549 95.3857 17.4148L92.5874 17.1875C92.7294 16.5246 93.0088 15.9517 93.4254 15.4688C93.8421 14.9811 94.3795 14.607 95.0376 14.3466C95.7005 14.0814 96.4676 13.9489 97.3388 13.9489C97.9448 13.9489 98.5249 14.0199 99.0788 14.1619C99.6375 14.304 100.132 14.5241 100.563 14.8224C100.999 15.1207 101.342 15.5043 101.593 15.973C101.844 16.437 101.969 16.9934 101.969 17.642V25H99.1001V23.4872H99.0149C98.8397 23.8281 98.6054 24.1288 98.3118 24.3892C98.0182 24.6449 97.6655 24.8461 97.2536 24.9929C96.8416 25.1349 96.3658 25.206 95.826 25.206ZM96.6925 23.1179C97.1375 23.1179 97.5305 23.0303 97.8714 22.8551C98.2124 22.6752 98.4799 22.4337 98.674 22.1307C98.8681 21.8277 98.9652 21.4844 98.9652 21.1009V19.9432C98.8705 20.0047 98.7403 20.0616 98.5746 20.1136C98.4136 20.161 98.2313 20.206 98.0277 20.2486C97.8241 20.2865 97.6205 20.322 97.4169 20.3551C97.2133 20.3835 97.0286 20.4096 96.8629 20.4332C96.5078 20.4853 96.1977 20.5682 95.9325 20.6818C95.6674 20.7955 95.4614 20.9493 95.3146 21.1435C95.1679 21.3329 95.0945 21.5696 95.0945 21.8537C95.0945 22.2656 95.2436 22.5805 95.5419 22.7983C95.8449 23.0114 96.2285 23.1179 96.6925 23.1179ZM112.277 25L108.115 10.4545H111.474L113.882 20.5611H114.002L116.659 10.4545H119.535L122.184 20.5824H122.312L124.72 10.4545H128.079L123.917 25H120.92L118.15 15.4901H118.037L115.274 25H112.277ZM133.468 25.2131C132.346 25.2131 131.38 24.9858 130.57 24.5312C129.765 24.072 129.145 23.4233 128.71 22.5852C128.274 21.7424 128.056 20.7457 128.056 19.5952C128.056 18.473 128.274 17.4882 128.71 16.6406C129.145 15.7931 129.758 15.1326 130.549 14.6591C131.344 14.1856 132.277 13.9489 133.347 13.9489C134.067 13.9489 134.737 14.0649 135.357 14.2969C135.982 14.5241 136.527 14.8674 136.991 15.3267C137.46 15.786 137.824 16.3636 138.085 17.0597C138.345 17.7509 138.475 18.5606 138.475 19.4886V20.3196H129.263V18.4446H135.627C135.627 18.009 135.532 17.6231 135.343 17.2869C135.154 16.9508 134.891 16.688 134.555 16.4986C134.223 16.3045 133.837 16.2074 133.397 16.2074C132.938 16.2074 132.531 16.3139 132.175 16.527C131.825 16.7353 131.55 17.017 131.352 17.3722C131.153 17.7225 131.051 18.1132 131.046 18.544V20.3267C131.046 20.8665 131.146 21.3329 131.344 21.7259C131.548 22.1188 131.835 22.4219 132.204 22.6349C132.573 22.848 133.011 22.9545 133.518 22.9545C133.854 22.9545 134.162 22.9072 134.441 22.8125C134.72 22.7178 134.96 22.5758 135.158 22.3864C135.357 22.197 135.509 21.965 135.613 21.6903L138.411 21.875C138.269 22.5473 137.978 23.1345 137.538 23.6364C137.102 24.1335 136.539 24.5218 135.847 24.8011C135.161 25.0758 134.368 25.2131 133.468 25.2131ZM140.506 25V10.4545H143.532V15.9233H143.624C143.757 15.6297 143.949 15.3314 144.2 15.0284C144.455 14.7206 144.787 14.465 145.194 14.2614C145.606 14.053 146.117 13.9489 146.728 13.9489C147.523 13.9489 148.257 14.1572 148.93 14.5739C149.602 14.9858 150.139 15.6084 150.542 16.4418C150.944 17.2704 151.146 18.3097 151.146 19.5597C151.146 20.7765 150.949 21.804 150.556 22.642C150.168 23.4754 149.638 24.1075 148.965 24.5384C148.298 24.9645 147.549 25.1776 146.721 25.1776C146.134 25.1776 145.634 25.0805 145.222 24.8864C144.815 24.6922 144.481 24.4484 144.221 24.1548C143.96 23.8565 143.762 23.5559 143.624 23.2528H143.489V25H140.506ZM143.468 19.5455C143.468 20.1941 143.558 20.7599 143.738 21.2429C143.918 21.7259 144.178 22.1023 144.519 22.3722C144.86 22.6373 145.274 22.7699 145.762 22.7699C146.254 22.7699 146.671 22.6349 147.012 22.3651C147.353 22.0904 147.611 21.7116 147.786 21.2287C147.966 20.741 148.056 20.1799 148.056 19.5455C148.056 18.9157 147.969 18.3617 147.793 17.8835C147.618 17.4053 147.36 17.0312 147.019 16.7614C146.678 16.4915 146.259 16.3565 145.762 16.3565C145.27 16.3565 144.853 16.4867 144.512 16.7472C144.176 17.0076 143.918 17.3769 143.738 17.8551C143.558 18.3333 143.468 18.8968 143.468 19.5455Z" fill="#DF4300"/>
<rect width="36" height="36" rx="4" fill="#E04300"/>
<path d="M8.99998 20H11V27C11 27.2652 11.1053 27.5196 11.2929 27.7071C11.4804 27.8947 11.7348 28 12 28H24C24.2652 28 24.5196 27.8947 24.7071 27.7071C24.8946 27.5196 25 27.2652 25 27V20H27C27.1932 20.0002 27.3824 19.9442 27.5445 19.839C27.7065 19.7337 27.8346 19.5837 27.913 19.407C27.9919 19.2305 28.0179 19.0348 27.9877 18.8438C27.9576 18.6528 27.8725 18.4746 27.743 18.331L18.743 8.33103C18.364 7.90903 17.636 7.90903 17.257 8.33103L8.25698 18.331C8.12767 18.4747 8.04277 18.6527 8.01255 18.8437C7.98232 19.0346 8.00807 19.2301 8.08668 19.4067C8.16529 19.5833 8.29339 19.7333 8.45548 19.8386C8.61757 19.9439 8.8067 20 8.99998 20ZM14.653 17.641C15.0692 17.2301 15.6306 16.9997 16.2155 16.9997C16.8004 16.9997 17.3617 17.2301 17.778 17.641L18.002 17.861L18.225 17.641C18.6414 17.23 19.2029 16.9996 19.788 16.9996C20.3731 16.9996 20.9346 17.23 21.351 17.641C21.5576 17.8398 21.7219 18.0781 21.8342 18.3419C21.9464 18.6057 22.0043 18.8894 22.0043 19.176C22.0043 19.4627 21.9464 19.7464 21.8342 20.0101C21.7219 20.2739 21.5576 20.5123 21.351 20.711L18.002 24L14.653 20.711C14.4464 20.5123 14.2821 20.2739 14.1698 20.0101C14.0576 19.7464 13.9997 19.4627 13.9997 19.176C13.9997 18.8894 14.0576 18.6057 14.1698 18.3419C14.2821 18.0781 14.4464 17.8398 14.653 17.641Z" fill="white"/>
</svg>
